<?xml version="1.0" encoding="UTF-8"?> <svg xmlns="http://www.w3.org/2000/svg" width="432" height="245" viewBox="0 0 432 245" fill="none"><g filter="url(#filter0_f_106_454)"><path d="M7.00001 143L58.6272 177.03H183.899L269.691 238H398" stroke="url(#paint0_linear_106_454)" stroke-width="2"></path></g><path d="M7.00001 143L58.6272 177.03H183.899L269.691 238H398" stroke="url(#paint1_linear_106_454)" stroke-width="2"></path><g filter="url(#filter1_f_106_454)"><path d="M7 92.5326H66.7477L123.814 49.7663M426 7H180.881L123.814 49.7663M123.814 49.7663L196.201 102.348H243.693M400.722 102.348H243.693M243.693 102.348L275.865 136H400.722" stroke="url(#paint2_linear_106_454)" stroke-width="2"></path></g><path d="M7 92.5326H66.7477L123.814 49.7663M426 7H180.881L123.814 49.7663M123.814 49.7663L196.201 102.348H243.693M400.722 102.348H243.693M243.693 102.348L275.865 136H400.722" stroke="url(#paint3_linear_106_454)" stroke-width="2"></path><defs><filter id="filter0_f_106_454" x="0.449707" y="136.165" width="403.55" height="108.835" filterUnits="userSpaceOnUse" color-interpolation-filters="sRGB"><feFlood flood-opacity="0" result="BackgroundImageFix"></feFlood><feBlend mode="normal" in="SourceGraphic" in2="BackgroundImageFix" result="shape"></feBlend><feGaussianBlur stdDeviation="3" result="effect1_foregroundBlur_106_454"></feGaussianBlur></filter><filter id="filter1_f_106_454" x="1" y="0" width="431" height="143" filterUnits="userSpaceOnUse" color-interpolation-filters="sRGB"><feFlood flood-opacity="0" result="BackgroundImageFix"></feFlood><feBlend mode="normal" in="SourceGraphic" in2="BackgroundImageFix" result="shape"></feBlend><feGaussianBlur stdDeviation="3" result="effect1_foregroundBlur_106_454"></feGaussianBlur></filter><linearGradient id="paint0_linear_106_454" x1="398" y1="190.5" x2="7" y2="190.5" gradientUnits="userSpaceOnUse"><stop stop-color="#6DC0B1"></stop><stop offset="1" stop-color="#0C2148"></stop></linearGradient><linearGradient id="paint1_linear_106_454" x1="398" y1="190.5" x2="7" y2="190.5" gradientUnits="userSpaceOnUse"><stop stop-color="#6DC0B1"></stop><stop offset="1" stop-color="#0C2148"></stop></linearGradient><linearGradient id="paint2_linear_106_454" x1="426" y1="71.5" x2="7" y2="71.5" gradientUnits="userSpaceOnUse"><stop stop-color="#6DC0B1"></stop><stop offset="1" stop-color="#0E2653"></stop></linearGradient><linearGradient id="paint3_linear_106_454" x1="426" y1="71.5" x2="7" y2="71.5" gradientUnits="userSpaceOnUse"><stop stop-color="#6DC0B1"></stop><stop offset="1" stop-color="#0E2653"></stop></linearGradient></defs></svg> 