<?xml version="1.0" encoding="UTF-8"?> <svg xmlns="http://www.w3.org/2000/svg" width="432" height="245" viewBox="0 0 432 245" fill="none"><g filter="url(#filter0_f_106_453)"><path d="M425 143L373.373 177.03H248.101L162.309 238H34" stroke="url(#paint0_linear_106_453)" stroke-width="2"></path></g><path d="M425 143L373.373 177.03H248.101L162.309 238H34" stroke="url(#paint1_linear_106_453)" stroke-width="2"></path><g filter="url(#filter1_f_106_453)"><path d="M425 92.5326H365.252L308.186 49.7663M6 7H251.119L308.186 49.7663M308.186 49.7663L235.799 102.348H188.307M31.2779 102.348H188.307M188.307 102.348L156.135 136H31.2779" stroke="url(#paint2_linear_106_453)" stroke-width="2"></path></g><path d="M425 92.5326H365.252L308.186 49.7663M6 7H251.119L308.186 49.7663M308.186 49.7663L235.799 102.348H188.307M31.2779 102.348H188.307M188.307 102.348L156.135 136H31.2779" stroke="url(#paint3_linear_106_453)" stroke-width="2"></path><defs><filter id="filter0_f_106_453" x="28" y="136.165" width="403.55" height="108.835" filterUnits="userSpaceOnUse" color-interpolation-filters="sRGB"><feFlood flood-opacity="0" result="BackgroundImageFix"></feFlood><feBlend mode="normal" in="SourceGraphic" in2="BackgroundImageFix" result="shape"></feBlend><feGaussianBlur stdDeviation="3" result="effect1_foregroundBlur_106_453"></feGaussianBlur></filter><filter id="filter1_f_106_453" x="0" y="0" width="431" height="143" filterUnits="userSpaceOnUse" color-interpolation-filters="sRGB"><feFlood flood-opacity="0" result="BackgroundImageFix"></feFlood><feBlend mode="normal" in="SourceGraphic" in2="BackgroundImageFix" result="shape"></feBlend><feGaussianBlur stdDeviation="3" result="effect1_foregroundBlur_106_453"></feGaussianBlur></filter><linearGradient id="paint0_linear_106_453" x1="34" y1="190.5" x2="425" y2="190.5" gradientUnits="userSpaceOnUse"><stop stop-color="#6DC0B1"></stop><stop offset="1" stop-color="#0C2148"></stop></linearGradient><linearGradient id="paint1_linear_106_453" x1="34" y1="190.5" x2="425" y2="190.5" gradientUnits="userSpaceOnUse"><stop stop-color="#6DC0B1"></stop><stop offset="1" stop-color="#0C2148"></stop></linearGradient><linearGradient id="paint2_linear_106_453" x1="6" y1="71.5" x2="425" y2="71.5" gradientUnits="userSpaceOnUse"><stop stop-color="#6DC0B1"></stop><stop offset="1" stop-color="#0E2653"></stop></linearGradient><linearGradient id="paint3_linear_106_453" x1="6" y1="71.5" x2="425" y2="71.5" gradientUnits="userSpaceOnUse"><stop stop-color="#6DC0B1"></stop><stop offset="1" stop-color="#0E2653"></stop></linearGradient></defs></svg> 